# Blender v3.0.0 OBJ File: ''
# www.blender.org
o Cube_Cube.007
v 1.000000 -1.000000 -1.000000
v 0.944267 -0.951700 -0.945686
v 1.000000 1.000000 -1.000000
v 1.000000 -1.000000 1.000000
v 0.944267 -0.951700 0.945686
v 1.000000 1.000000 1.000000
v -1.000000 -1.000000 -1.000000
v -0.947105 -0.951700 -0.945686
v -1.000000 1.000000 -1.000000
v -1.000000 -1.000000 1.000000
v -0.947105 -0.951700 0.945686
v -1.000000 1.000000 1.000000
v 0.944267 1.000000 0.945686
v 0.944267 1.000000 -0.945686
v -0.947105 1.000000 -0.945686
v -0.947105 1.000000 0.945686
vt 0.625000 0.000000
vt 0.375000 0.250000
vt 0.375000 0.000000
vt 0.625000 0.250000
vt 0.375000 0.500000
vt 0.625000 0.500000
vt 0.375000 0.750000
vt 0.625000 0.750000
vt 0.375000 1.000000
vt 0.125000 0.750000
vt 0.125000 0.500000
vt 0.631612 0.506789
vt 0.631612 0.743211
vt 0.875000 0.500000
vt 0.875000 0.750000
vt 0.868033 0.506789
vt 0.375000 0.000000
vt 0.614846 0.250000
vt 0.614846 0.000000
vt 0.375000 0.250000
vt 0.614846 0.500000
vt 0.375000 0.750000
vt 0.375000 0.500000
vt 0.375000 1.000000
vt 0.614846 0.750000
vt 0.125000 0.750000
vt 0.125000 0.500000
vt 0.625000 1.000000
vt 0.868033 0.743211
vt 0.614846 1.000000
vn 1.0000 0.0000 0.0000
vn 0.0000 0.0000 1.0000
vn -1.0000 0.0000 0.0000
vn 0.0000 0.0000 -1.0000
vn 0.0000 -1.0000 0.0000
vn 0.0000 1.0000 0.0000
s off
f 3/1/1 4/2/1 1/3/1
f 6/4/2 10/5/2 4/2/2
f 12/6/3 7/7/3 10/5/3
f 9/8/4 1/9/4 7/7/4
f 10/5/5 1/10/5 4/11/5
f 9/8/6 16/12/6 15/13/6
f 6/14/6 3/15/6 13/16/6
f 2/17/3 13/18/3 14/19/3
f 5/20/4 16/21/4 13/18/4
f 8/22/1 16/21/1 11/23/1
f 2/24/2 15/25/2 8/22/2
f 2/26/6 11/23/6 5/27/6
f 3/1/1 6/4/1 4/2/1
f 6/4/2 12/6/2 10/5/2
f 12/6/3 9/8/3 7/7/3
f 9/8/4 3/28/4 1/9/4
f 10/5/5 7/7/5 1/10/5
f 9/8/6 12/6/6 16/12/6
f 13/16/6 16/12/6 12/6/6
f 3/15/6 9/8/6 14/29/6
f 9/8/6 15/13/6 14/29/6
f 13/16/6 12/6/6 6/14/6
f 3/15/6 14/29/6 13/16/6
f 2/17/3 5/20/3 13/18/3
f 5/20/4 11/23/4 16/21/4
f 8/22/1 15/25/1 16/21/1
f 2/24/2 14/30/2 15/25/2
f 2/26/6 8/22/6 11/23/6
